# xmcd CD database file
#
# Track frame offsets:
#	150
#	18290
#	40587
#	64305
#	77862
#	93757
#	118305
#	136345
#	149335
#	164972
#	182255
#	202392
#
# Disc length: 2876 seconds
#
# Revision: 1
# Processed by: cddbd v1.5.2PL0 Copyright (c) Steve Scherf et al.
# Submitted via: CDex 1.70beta2
#
DISCID=ad0b3a0c
DTITLE=Steve Cardenas with John Beasley - Tribute to Thelonious Monk
DYEAR=1994
DGENRE=Jazz
TTITLE0=Think Of One
TTITLE1=Oska T.
TTITLE2=Introspection
TTITLE3=Ugly Beauty
TTITLE4=Boo Boo's Birthday
TTITLE5=Locomotive
TTITLE6=Gallop's Gallop
TTITLE7=Skippy
TTITLE8=Coming On The Hudson
TTITLE9=Ba-lue Bolivar Ba-lues-are
TTITLE10=Light Blue
TTITLE11=Crepuscule With Nellie
EXTD=YEAR: 1994
EXTT0=
EXTT1=
EXTT2=
EXTT3=
EXTT4=
EXTT5=
EXTT6=
EXTT7=
EXTT8=
EXTT9=
EXTT10=
EXTT11=
PLAYORDER=
